# Blender v2.78 (sub 0) OBJ File: ''
# www.blender.org
mtllib arrow.mtl
o Cylinder
v 1.000024 1.273099 -0.304313
v 1.098994 -6.294728 -0.444946
v 1.065286 1.273829 -0.297660
v 1.164256 -6.293999 -0.438292
v 1.128012 1.274288 -0.278261
v 1.226982 -6.293539 -0.418894
v 1.185792 1.274461 -0.246864
v 1.284763 -6.293366 -0.387496
v 1.236406 1.274338 -0.204674
v 1.335377 -6.293489 -0.345306
v 1.277909 1.273927 -0.153313
v 1.376879 -6.293900 -0.293945
v 1.308705 1.273241 -0.094755
v 1.407675 -6.294586 -0.235387
v 1.327611 1.272309 -0.031249
v 1.426581 -6.295519 -0.171882
v 1.333901 1.271164 0.034763
v 1.432871 -6.296663 -0.105870
v 1.327332 1.269852 0.100744
v 1.426302 -6.297975 -0.039888
v 1.308158 1.268423 0.164160
v 1.407128 -6.299404 0.023528
v 1.277115 1.266931 0.222573
v 1.376085 -6.300896 0.081941
v 1.235396 1.265435 0.273738
v 1.334366 -6.302392 0.133106
v 1.184605 1.263991 0.315689
v 1.283575 -6.303836 0.175057
v 1.126692 1.262655 0.346814
v 1.225662 -6.305172 0.206182
v 1.063884 1.261479 0.365917
v 1.162855 -6.306348 0.225285
v 0.998595 1.260507 0.372264
v 1.097565 -6.307320 0.231631
v 0.933334 1.259778 0.365610
v 1.032304 -6.308050 0.224978
v 0.870607 1.259318 0.346212
v 0.969577 -6.308510 0.205579
v 0.812827 1.259145 0.314814
v 0.911797 -6.308681 0.174182
v 0.762213 1.259268 0.272624
v 0.861183 -6.308559 0.131992
v 0.720710 1.259679 0.221263
v 0.819681 -6.308148 0.080631
v 0.689914 1.260365 0.162705
v 0.788885 -6.307463 0.022072
v 0.671008 1.261297 0.099199
v 0.769979 -6.306530 -0.041433
v 0.664719 1.262442 0.033187
v 0.763689 -6.305386 -0.107445
v 0.671287 1.263754 -0.032795
v 0.770257 -6.304073 -0.173427
v 0.690461 1.265183 -0.096210
v 0.789432 -6.302644 -0.236843
v 0.721505 1.266675 -0.154623
v 0.820475 -6.301152 -0.295256
v 0.763224 1.268171 -0.205788
v 0.862194 -6.299656 -0.346421
v 0.814015 1.269615 -0.247739
v 0.912985 -6.298212 -0.388372
v 0.871928 1.270951 -0.278864
v 0.970898 -6.296877 -0.419497
v 0.934735 1.272127 -0.297967
v 1.033705 -6.295700 -0.438599
vn -0.1012 -0.0198 0.9947
vn -0.2952 -0.0216 0.9552
vn -0.4773 -0.0226 0.8785
vn -0.6402 -0.0226 0.7679
vn -0.7777 -0.0218 0.6283
vn -0.8850 -0.0202 0.4652
vn -0.9583 -0.0178 0.2850
vn -0.9954 -0.0148 0.0946
vn -0.9950 -0.0112 -0.0993
vn -0.9571 -0.0071 -0.2896
vn -0.8830 -0.0028 -0.4693
vn -0.7750 0.0016 -0.6319
vn -0.6369 0.0060 -0.7709
vn -0.4736 0.0102 -0.8807
vn -0.2912 0.0140 -0.9566
vn -0.0970 0.0172 -0.9951
vn 0.1012 0.0198 -0.9947
vn 0.2952 0.0216 -0.9552
vn 0.4773 0.0226 -0.8785
vn 0.6402 0.0226 -0.7679
vn 0.7777 0.0218 -0.6283
vn 0.8850 0.0202 -0.4652
vn 0.9583 0.0178 -0.2850
vn 0.9954 0.0148 -0.0946
vn 0.9950 0.0112 0.0993
vn 0.9571 0.0071 0.2896
vn 0.8830 0.0028 0.4693
vn 0.7750 -0.0016 0.6319
vn 0.6369 -0.0060 0.7709
vn 0.4736 -0.0102 0.8807
vn -0.0131 0.9997 0.0186
vn 0.2912 -0.0140 0.9566
vn 0.0970 -0.0172 0.9951
vn 0.0131 -0.9997 -0.0186
usemtl None
s off
f 1//1 2//1 4//1 3//1
f 3//2 4//2 6//2 5//2
f 5//3 6//3 8//3 7//3
f 7//4 8//4 10//4 9//4
f 9//5 10//5 12//5 11//5
f 11//6 12//6 14//6 13//6
f 13//7 14//7 16//7 15//7
f 15//8 16//8 18//8 17//8
f 17//9 18//9 20//9 19//9
f 19//10 20//10 22//10 21//10
f 21//11 22//11 24//11 23//11
f 23//12 24//12 26//12 25//12
f 25//13 26//13 28//13 27//13
f 27//14 28//14 30//14 29//14
f 29//15 30//15 32//15 31//15
f 31//16 32//16 34//16 33//16
f 33//17 34//17 36//17 35//17
f 35//18 36//18 38//18 37//18
f 37//19 38//19 40//19 39//19
f 39//20 40//20 42//20 41//20
f 41//21 42//21 44//21 43//21
f 43//22 44//22 46//22 45//22
f 45//23 46//23 48//23 47//23
f 47//24 48//24 50//24 49//24
f 49//25 50//25 52//25 51//25
f 51//26 52//26 54//26 53//26
f 53//27 54//27 56//27 55//27
f 55//28 56//28 58//28 57//28
f 57//29 58//29 60//29 59//29
f 59//30 60//30 62//30 61//30
f 4//31 2//31 64//31 62//31 60//31 58//31 56//31 54//31 52//31 50//31 48//31 46//31 44//31 42//31 40//31 38//31 36//31 34//31 32//31 30//31 28//31 26//31 24//31 22//31 20//31 18//31 16//31 14//31 12//31 10//31 8//31 6//31
f 61//32 62//32 64//32 63//32
f 63//33 64//33 2//33 1//33
f 1//34 3//34 5//34 7//34 9//34 11//34 13//34 15//34 17//34 19//34 21//34 23//34 25//34 27//34 29//34 31//34 33//34 35//34 37//34 39//34 41//34 43//34 45//34 47//34 49//34 51//34 53//34 55//34 57//34 59//34 61//34 63//34
o Cone
v 0.999960 -0.024410 -0.984032
v 1.195050 -0.024410 -0.964817
v 1.382643 -0.024410 -0.907912
v 1.555530 -0.024410 -0.815502
v 1.707067 -0.024410 -0.691139
v 1.831429 -0.024410 -0.539602
v 1.923839 -0.024410 -0.366716
v 1.980745 -0.024410 -0.179122
v 1.999960 -0.024410 0.015968
v 0.999960 1.975590 0.015968
v 1.980745 -0.024410 0.211058
v 1.923839 -0.024410 0.398651
v 1.831429 -0.024410 0.571538
v 1.707067 -0.024410 0.723075
v 1.555530 -0.024410 0.847438
v 1.382643 -0.024410 0.939848
v 1.195050 -0.024410 0.996753
v 0.999960 -0.024410 1.015968
v 0.804869 -0.024410 0.996753
v 0.617276 -0.024410 0.939847
v 0.444389 -0.024410 0.847437
v 0.292853 -0.024410 0.723074
v 0.168490 -0.024410 0.571538
v 0.076080 -0.024410 0.398651
v 0.019174 -0.024410 0.211057
v -0.000040 -0.024410 0.015967
v 0.019175 -0.024410 -0.179123
v 0.076081 -0.024410 -0.366717
v 0.168491 -0.024410 -0.539603
v 0.292854 -0.024410 -0.691140
v 0.444391 -0.024410 -0.815502
v 0.617278 -0.024410 -0.907912
v 0.804871 -0.024410 -0.964818
vn 0.0878 0.4455 -0.8910
vn 0.2599 0.4455 -0.8567
vn 0.4220 0.4455 -0.7896
vn 0.5680 0.4455 -0.6921
vn 0.6921 0.4455 -0.5680
vn 0.7896 0.4455 -0.4220
vn 0.8567 0.4455 -0.2599
vn 0.8910 0.4455 -0.0878
vn 0.8910 0.4455 0.0878
vn 0.8567 0.4455 0.2599
vn 0.7896 0.4455 0.4220
vn 0.6921 0.4455 0.5680
vn 0.5680 0.4455 0.6921
vn 0.4220 0.4455 0.7896
vn 0.2599 0.4455 0.8567
vn 0.0878 0.4455 0.8910
vn -0.0878 0.4455 0.8910
vn -0.2599 0.4455 0.8567
vn -0.4220 0.4455 0.7896
vn -0.5680 0.4455 0.6921
vn -0.6921 0.4455 0.5680
vn -0.7896 0.4455 0.4220
vn -0.8567 0.4455 0.2599
vn -0.8910 0.4455 0.0878
vn -0.8910 0.4455 -0.0878
vn -0.8567 0.4455 -0.2599
vn -0.7896 0.4455 -0.4220
vn -0.6921 0.4455 -0.5680
vn -0.5680 0.4455 -0.6921
vn -0.4220 0.4455 -0.7896
vn -0.2599 0.4455 -0.8567
vn -0.0878 0.4455 -0.8910
vn 0.0000 -1.0000 -0.0000
usemtl None
s off
f 65//35 74//35 66//35
f 66//36 74//36 67//36
f 67//37 74//37 68//37
f 68//38 74//38 69//38
f 69//39 74//39 70//39
f 70//40 74//40 71//40
f 71//41 74//41 72//41
f 72//42 74//42 73//42
f 73//43 74//43 75//43
f 75//44 74//44 76//44
f 76//45 74//45 77//45
f 77//46 74//46 78//46
f 78//47 74//47 79//47
f 79//48 74//48 80//48
f 80//49 74//49 81//49
f 81//50 74//50 82//50
f 82//51 74//51 83//51
f 83//52 74//52 84//52
f 84//53 74//53 85//53
f 85//54 74//54 86//54
f 86//55 74//55 87//55
f 87//56 74//56 88//56
f 88//57 74//57 89//57
f 89//58 74//58 90//58
f 90//59 74//59 91//59
f 91//60 74//60 92//60
f 92//61 74//61 93//61
f 93//62 74//62 94//62
f 94//63 74//63 95//63
f 95//64 74//64 96//64
f 96//65 74//65 97//65
f 97//66 74//66 65//66
f 65//67 66//67 67//67 68//67 69//67 70//67 71//67 72//67 73//67 75//67 76//67 77//67 78//67 79//67 80//67 81//67 82//67 83//67 84//67 85//67 86//67 87//67 88//67 89//67 90//67 91//67 92//67 93//67 94//67 95//67 96//67 97//67
