# Blender v2.78 (sub 0) OBJ File: ''
# www.blender.org
mtllib newmulti.mtl
o Cube.009_Cube.010
v -11.163647 1.726887 -1.411046
v -11.163647 -0.273113 -3.411046
v -11.163647 -0.273113 -1.411046
v -11.163647 1.726887 -3.411046
v -9.163647 -0.273113 -3.411046
v -9.163647 1.726887 -3.411046
v -9.163647 -0.273113 -1.411046
v -9.163647 1.726887 -1.411046
vn -1.0000 -0.0000 0.0000
vn 0.0000 0.0000 -1.0000
vn 1.0000 -0.0000 0.0000
vn 0.0000 -0.0000 1.0000
vn 0.0000 -1.0000 -0.0000
vn 0.0000 1.0000 0.0000
usemtl None.001
s 1
f 1//1 2//1 3//1
f 4//2 5//2 2//2
f 6//3 7//3 5//3
f 8//4 3//4 7//4
f 5//5 3//5 2//5
f 4//6 8//6 6//6
f 1//1 4//1 2//1
f 4//2 6//2 5//2
f 6//3 8//3 7//3
f 8//4 1//4 3//4
f 5//5 7//5 3//5
f 4//6 1//6 8//6
o Cube.003_Cube.004
v 0.459090 0.704574 6.212216
v 0.732726 -0.866799 3.876426
v 0.919742 -1.205465 5.838652
v 0.272074 1.043241 4.249990
v 2.669947 -0.379916 3.775826
v 2.209295 1.530123 4.149390
v 2.856963 -0.718583 5.738052
v 2.396311 1.191457 6.111616
vn -0.9686 -0.2434 0.0503
vn -0.0935 0.1693 -0.9811
vn 0.9686 0.2434 -0.0503
vn 0.0935 -0.1693 0.9811
vn 0.2303 -0.9550 -0.1868
vn -0.2303 0.9550 0.1868
usemtl None.002
s 1
f 9//7 10//7 11//7
f 12//8 13//8 10//8
f 14//9 15//9 13//9
f 16//10 11//10 15//10
f 13//11 11//11 10//11
f 12//12 16//12 14//12
f 9//7 12//7 10//7
f 12//8 14//8 13//8
f 14//9 16//9 15//9
f 16//10 9//10 11//10
f 13//11 15//11 11//11
f 12//12 9//12 16//12
o Cube.006_Cube.007
v 0.381491 1.726888 -5.102372
v 0.381491 -0.273112 -7.102372
v 0.381491 -0.273112 -5.102372
v 0.381491 1.726888 -7.102372
v 2.381491 -0.273112 -7.102372
v 2.381491 1.726888 -7.102372
v 2.381491 -0.273112 -5.102372
v 2.381491 1.726888 -5.102372
vn -1.0000 0.0000 0.0000
vn 0.0000 0.0000 -1.0000
vn 1.0000 0.0000 0.0000
vn 0.0000 -0.0000 1.0000
vn 0.0000 -1.0000 -0.0000
vn 0.0000 1.0000 0.0000
usemtl None.003
s 1
f 17//13 18//13 19//13
f 20//14 21//14 18//14
f 22//15 23//15 21//15
f 24//16 19//16 23//16
f 21//17 19//17 18//17
f 20//18 24//18 22//18
f 17//13 20//13 18//13
f 20//14 22//14 21//14
f 22//15 24//15 23//15
f 24//16 17//16 19//16
f 21//17 23//17 19//17
f 20//18 17//18 24//18
o Cube.007_Cube.008
v 4.217671 1.726888 -5.102372
v 4.217671 -0.273112 -7.102372
v 4.217671 -0.273112 -5.102372
v 4.217671 1.726888 -7.102372
v 6.217671 -0.273112 -7.102372
v 6.217671 1.726888 -7.102372
v 6.217671 -0.273112 -5.102372
v 6.217671 1.726888 -5.102372
vn -1.0000 0.0000 0.0000
vn 0.0000 0.0000 -1.0000
vn 1.0000 0.0000 0.0000
vn 0.0000 -0.0000 1.0000
vn 0.0000 -1.0000 -0.0000
vn 0.0000 1.0000 0.0000
usemtl None.004
s 1
f 25//19 26//19 27//19
f 28//20 29//20 26//20
f 30//21 31//21 29//21
f 32//22 27//22 31//22
f 29//23 27//23 26//23
f 28//24 32//24 30//24
f 25//19 28//19 26//19
f 28//20 30//20 29//20
f 30//21 32//21 31//21
f 32//22 25//22 27//22
f 29//23 31//23 27//23
f 28//24 25//24 32//24
o Cube.005_Cube.006
v -4.763418 1.726888 -5.102372
v -4.763418 -0.273112 -7.102372
v -4.763418 -0.273112 -5.102372
v -4.763418 1.726888 -7.102372
v -2.763418 -0.273112 -7.102372
v -2.763418 1.726888 -7.102372
v -2.763418 -0.273112 -5.102372
v -2.763418 1.726888 -5.102372
vn -1.0000 -0.0000 0.0000
vn 0.0000 0.0000 -1.0000
vn 1.0000 0.0000 0.0000
vn 0.0000 -0.0000 1.0000
vn 0.0000 -1.0000 -0.0000
vn 0.0000 1.0000 0.0000
usemtl None.005
s 1
f 33//25 34//25 35//25
f 36//26 37//26 34//26
f 38//27 39//27 37//27
f 40//28 35//28 39//28
f 37//29 35//29 34//29
f 36//30 40//30 38//30
f 33//25 36//25 34//25
f 36//26 38//26 37//26
f 38//27 40//27 39//27
f 40//28 33//28 35//28
f 37//29 39//29 35//29
f 36//30 33//30 40//30
o Cube.002_Cube.003
v -4.763418 1.726887 -1.354017
v -4.763418 -0.273113 -3.354017
v -4.763418 -0.273113 -1.354017
v -4.763418 1.726887 -3.354017
v -2.763418 -0.273113 -3.354017
v -2.763418 1.726887 -3.354017
v -2.763418 -0.273113 -1.354017
v -2.763418 1.726887 -1.354017
vt 0.0094 -0.0031
vt 1.0094 -0.0031
vt 1.0094 0.9969
vt 0.0094 -0.0031
vt 1.0094 -0.0031
vt 1.0094 0.9969
vt 0.0094 -0.0031
vt 1.0094 -0.0031
vt 1.0094 0.9969
vt 0.0094 -0.0031
vt 1.0094 -0.0031
vt 1.0094 0.9969
vt 0.0094 -0.0031
vt 1.0094 -0.0031
vt 1.0094 0.9969
vt 1.0094 -0.0031
vt 1.0094 -0.0031
vt 1.0094 -0.0031
vt 1.0094 0.9969
vn -1.0000 -0.0000 0.0000
vn 0.0000 0.0000 -1.0000
vn 1.0000 -0.0000 0.0000
vn 0.0000 -0.0000 1.0000
vn 0.0000 -1.0000 -0.0000
vn 0.0000 1.0000 0.0000
usemtl Non.006
s 1
f 41/1/31 42/2/31 43/3/31
f 44/4/32 45/5/32 42/6/32
f 46/7/33 47/8/33 45/9/33
f 48/10/34 43/11/34 47/12/34
f 45/13/35 43/11/35 42/6/35
f 44/4/36 48/14/36 46/15/36
f 41/1/31 44/16/31 42/6/31
f 44/4/32 46/17/32 45/9/32
f 46/7/33 48/14/33 47/12/33
f 48/10/34 41/18/34 43/3/34
f 45/13/35 47/8/35 43/3/35
f 44/4/36 41/18/36 48/19/36
o Cube.008_Cube.009
v -9.055986 1.726888 -5.102372
v -9.055986 -0.273112 -7.102372
v -9.055986 -0.273112 -5.102372
v -9.055986 1.726888 -7.102372
v -7.055986 -0.273112 -7.102372
v -7.055986 1.726888 -7.102372
v -7.055986 -0.273112 -5.102372
v -7.055986 1.726888 -5.102372
vn -1.0000 -0.0000 0.0000
vn 0.0000 0.0000 -1.0000
vn 1.0000 0.0000 0.0000
vn 0.0000 -0.0000 1.0000
vn 0.0000 -1.0000 -0.0000
vn 0.0000 1.0000 0.0000
usemtl None.007
s 1
f 49//37 50//37 51//37
f 52//38 53//38 50//38
f 54//39 55//39 53//39
f 56//40 51//40 55//40
f 53//41 51//41 50//41
f 52//42 56//42 54//42
f 49//37 52//37 50//37
f 52//38 54//38 53//38
f 54//39 56//39 55//39
f 56//40 49//40 51//40
f 53//41 55//41 51//41
f 52//42 49//42 56//42
o Cube.001_Cube.002
v -4.763418 1.726887 2.403394
v -4.763418 -0.273113 0.403394
v -4.763418 -0.273113 2.403394
v -4.763418 1.726887 0.403394
v -2.763418 -0.273113 0.403394
v -2.763418 1.726887 0.403394
v -2.763418 -0.273113 2.403394
v -2.763418 1.726887 2.403394
vn -1.0000 0.0000 0.0000
vn 0.0000 0.0000 -1.0000
vn 1.0000 -0.0000 0.0000
vn 0.0000 -0.0000 1.0000
vn 0.0000 -1.0000 -0.0000
vn 0.0000 1.0000 0.0000
usemtl None.008
s 1
f 57//43 58//43 59//43
f 60//44 61//44 58//44
f 62//45 63//45 61//45
f 64//46 59//46 63//46
f 61//47 59//47 58//47
f 60//48 64//48 62//48
f 57//43 60//43 58//43
f 60//44 62//44 61//44
f 62//45 64//45 63//45
f 64//46 57//46 59//46
f 61//47 63//47 59//47
f 60//48 57//48 64//48
o Cube_Cube.001
v -4.763418 1.726886 6.016308
v -4.763418 -0.273114 4.016308
v -4.763418 -0.273114 6.016308
v -4.763418 1.726886 4.016308
v -2.763418 -0.273114 4.016308
v -2.763418 1.726886 4.016308
v -2.763418 -0.273114 6.016308
v -2.763418 1.726886 6.016308
vn -1.0000 -0.0000 0.0000
vn 0.0000 0.0000 -1.0000
vn 1.0000 0.0000 0.0000
vn 0.0000 -0.0000 1.0000
vn 0.0000 -1.0000 -0.0000
vn 0.0000 1.0000 0.0000
usemtl None.009
s 1
f 65//49 66//49 67//49
f 68//50 69//50 66//50
f 70//51 71//51 69//51
f 72//52 67//52 71//52
f 69//53 67//53 66//53
f 68//54 72//54 70//54
f 65//49 68//49 66//49
f 68//50 70//50 69//50
f 70//51 72//51 71//51
f 72//52 65//52 67//52
f 69//53 71//53 67//53
f 68//54 65//54 72//54
o Cube.004_Cube.005
v 1.060750 1.006825 3.267775
v 1.060750 -0.993174 1.267775
v 1.060750 -0.993175 3.267775
v 1.060750 1.006826 1.267775
v 3.060750 -0.993174 1.267775
v 3.060750 1.006826 1.267775
v 3.060750 -0.993175 3.267775
v 3.060750 1.006825 3.267775
vn -1.0000 0.0000 0.0000
vn 0.0000 0.0000 -1.0000
vn 1.0000 -0.0000 0.0000
vn 0.0000 -0.0000 1.0000
vn 0.0000 -1.0000 -0.0000
vn 0.0000 1.0000 0.0000
usemtl None
s 1
f 73//55 74//55 75//55
f 76//56 77//56 74//56
f 78//57 79//57 77//57
f 80//58 75//58 79//58
f 77//59 75//59 74//59
f 76//60 80//60 78//60
f 73//55 76//55 74//55
f 76//56 78//56 77//56
f 78//57 80//57 79//57
f 80//58 73//58 75//58
f 77//59 79//59 75//59
f 76//60 73//60 80//60
o Cube
v 1.000000 -1.012979 -1.000000
v 1.000000 -1.012979 1.000000
v -1.000000 -1.012979 1.000000
v -1.000000 -1.012979 -1.000000
v 1.000000 0.987021 -0.999999
v 0.999999 0.987021 1.000001
v -1.000000 0.987021 1.000000
v -1.000000 0.987021 -1.000000
vn 0.0000 -1.0000 0.0000
vn 0.0000 1.0000 0.0000
vn 1.0000 0.0000 0.0000
vn -0.0000 -0.0000 1.0000
vn -1.0000 -0.0000 -0.0000
vn 0.0000 0.0000 -1.0000
usemtl Material
s off
f 81//61 82//61 83//61 84//61
f 85//62 88//62 87//62 86//62
f 81//63 85//63 86//63 82//63
f 82//64 86//64 87//64 83//64
f 83//65 87//65 88//65 84//65
f 85//66 81//66 84//66 88//66
